<?xml version="1.0" encoding="utf-8"?>
<!-- Generator: Adobe Illustrator 26.0.2, SVG Export Plug-In . SVG Version: 6.00 Build 0)  -->
<svg version="1.1" id="Layer_1" xmlns="http://www.w3.org/2000/svg" xmlns:xlink="http://www.w3.org/1999/xlink" x="0px" y="0px"
	 viewBox="0 0 26 26" style="enable-background:new 0 0 26 26;" xml:space="preserve">
<style type="text/css">
	.st0{fill:#00E2E6;}
</style>
<g id="Layer_2_00000094616954015583731710000016122719274641961910_">
	<g id="Layer_1-2">
		<path class="st0" d="M13,0C5.8,0,0,5.8,0,13c0,4.6,2.5,8.9,6.5,11.2V13c0-3.6,2.9-6.5,6.5-6.5c3.6,0,6.5,2.9,6.5,6.5
			c0,2.4-1.3,4.6-3.5,5.8L14.3,17c2.2-0.7,3.4-3.1,2.7-5.3S13.9,8.3,11.7,9c-1.7,0.6-2.9,2.2-2.9,4v12.3c0.7,0.3,1.5,0.4,2.3,0.6
			C11.7,26,12.4,26,13,26c7.2,0,13-5.8,13-13S20.2,0,13,0z M13,11.1c1.1,0,1.9,0.9,1.9,1.9c0,1.1-0.9,1.9-1.9,1.9
			c-0.5,0-0.9-0.2-1.3-0.5l-0.1-0.1c-0.3-0.4-0.5-0.8-0.5-1.3C11.1,11.9,11.9,11.1,13,11.1z M13,23.7c-0.6,0-1.3-0.1-1.9-0.2V17
			l2.5,2.5l1.9,1.9L17,23C15.7,23.5,14.4,23.7,13,23.7z M19.1,21.8l-1.4-1.4c4.1-2.6,5.3-8,2.7-12.1S12.4,3,8.3,5.6
			C5.7,7.2,4.2,10,4.2,13v6.1c-1.3-1.8-1.9-3.9-1.9-6.1C2.2,7.1,7,2.3,13,2.2C18.9,2.2,23.7,7,23.7,13C23.7,16.5,22,19.8,19.1,21.8z
			"/>
	</g>
</g>
</svg>
