<svg xmlns="http://www.w3.org/2000/svg" viewBox="0 0 565.26 115.36"><defs><style>.cls-1{fill:#3e4242;}.cls-2{fill:#00e2e6;}</style></defs><g id="Layer_2" data-name="Layer 2"><g id="Layer_1-2" data-name="Layer 1"><path class="cls-1" d="M188.57,64.57l.56-.28a24.27,24.27,0,0,0,9.72-9,24.9,24.9,0,0,0,3.5-13.12,27.09,27.09,0,0,0-3.49-13.87,25,25,0,0,0-9.72-9.38,29.2,29.2,0,0,0-14.24-3.42H156a5.91,5.91,0,0,0-6,6.1V93.36a6,6,0,0,0,1.74,4.33,6.18,6.18,0,0,0,8.65,0A6.07,6.07,0,0,0,162,93.36V67.54H174.9c.55,0,1.09,0,1.62,0l17.83,29a6,6,0,0,0,2.27,2.23,6.23,6.23,0,0,0,2.95.7,5.4,5.4,0,0,0,5.24-3,6.22,6.22,0,0,0-.55-6.34ZM162,26.82H174.9a17,17,0,0,1,8.23,1.94,14.29,14.29,0,0,1,5.55,5.41,15.62,15.62,0,0,1,2,8,13.47,13.47,0,0,1-2,7.27,13.76,13.76,0,0,1-5.55,5,18.11,18.11,0,0,1-8.24,1.79H162Z"/><path class="cls-1" d="M252.68,43.71a32.18,32.18,0,0,0-30.49,0,27.88,27.88,0,0,0-10.45,10.61,31.49,31.49,0,0,0-3.8,15.61,31.25,31.25,0,0,0,3.8,15.5A27.78,27.78,0,0,0,222.19,96a32.33,32.33,0,0,0,30.6,0,27.4,27.4,0,0,0,10.4-10.61,31.59,31.59,0,0,0,3.74-15.49,31.49,31.49,0,0,0-3.8-15.61A27.88,27.88,0,0,0,252.68,43.71Zm-5.83,43a19,19,0,0,1-18.72,0,17.63,17.63,0,0,1-6.4-6.78,20.73,20.73,0,0,1-2.35-10,21.06,21.06,0,0,1,2.35-10.07,17.42,17.42,0,0,1,6.4-6.83,19,19,0,0,1,18.72,0,17.16,17.16,0,0,1,6.35,6.83,21.51,21.51,0,0,1,2.29,10.07,21.18,21.18,0,0,1-2.29,10A17.28,17.28,0,0,1,246.85,86.72Z"/><path class="cls-1" d="M319.44,43.83a26.9,26.9,0,0,0-25.71-1.3,27.82,27.82,0,0,0-8,6V30.73a5.92,5.92,0,0,0-1.63-4.33,6,6,0,0,0-10.23,4.33v39.1a31.51,31.51,0,0,0,4,15.33,29.84,29.84,0,0,0,40.58,10.76,29.33,29.33,0,0,0,10.55-10.75,30.5,30.5,0,0,0,3.91-15.35,32.19,32.19,0,0,0-3.59-15.27A28.17,28.17,0,0,0,319.44,43.83Zm-6.92,42.84a18.19,18.19,0,0,1-18.44,0,17.72,17.72,0,0,1-6.46-6.94,20.89,20.89,0,0,1-2.35-9.91,20.49,20.49,0,0,1,2.35-9.9,17.93,17.93,0,0,1,6.46-6.84,18.19,18.19,0,0,1,18.44,0A18.42,18.42,0,0,1,319,59.92a20.23,20.23,0,0,1,2.39,9.9A20.63,20.63,0,0,1,319,79.73,18.27,18.27,0,0,1,312.52,86.67Z"/><path class="cls-1" d="M383.84,43.71a32.2,32.2,0,0,0-30.5,0,28,28,0,0,0-10.45,10.61,31.49,31.49,0,0,0-3.8,15.61,31.25,31.25,0,0,0,3.8,15.5A27.85,27.85,0,0,0,353.34,96a32.33,32.33,0,0,0,30.6,0,27.34,27.34,0,0,0,10.4-10.61,31.49,31.49,0,0,0,3.75-15.49,31.49,31.49,0,0,0-3.8-15.61A28,28,0,0,0,383.84,43.71Zm-5.84,43a17.89,17.89,0,0,1-25.12-6.78,20.73,20.73,0,0,1-2.35-10,21.06,21.06,0,0,1,2.35-10.07,17.49,17.49,0,0,1,6.4-6.83A19,19,0,0,1,378,53a17.09,17.09,0,0,1,6.35,6.83,21.39,21.39,0,0,1,2.3,10.07,21.06,21.06,0,0,1-2.3,10A17.28,17.28,0,0,1,378,86.72Z"/><path class="cls-1" d="M483.59,15.48a5.87,5.87,0,0,0-5.35,3.3l-29.84,62-30.65-62a5.85,5.85,0,0,0-5.33-3.27,5.91,5.91,0,0,0-6,6.1V93.36a5.94,5.94,0,0,0,1.75,4.33,6.12,6.12,0,0,0,8.59,0,6,6,0,0,0,1.74-4.33V44.09l24,48.56A5.79,5.79,0,0,0,448,96.27a6,6,0,0,0,5.25-3.08l24.31-50V93.36a5.92,5.92,0,0,0,1.74,4.33,5.82,5.82,0,0,0,4.29,1.76,6.06,6.06,0,0,0,6-6.09V21.58a5.91,5.91,0,0,0-6-6.1Z"/><path class="cls-1" d="M562.28,40.56a39.15,39.15,0,0,0-8.52-13.29,38.55,38.55,0,0,0-13-8.72,44,44,0,0,0-16.65-3.07h-19a5.93,5.93,0,0,0-6,6.1V93.36a5.94,5.94,0,0,0,1.75,4.33,5.81,5.81,0,0,0,4.29,1.76h19a44,44,0,0,0,16.65-3.06,38.38,38.38,0,0,0,21.57-22.07,46.47,46.47,0,0,0,3-16.9A46.1,46.1,0,0,0,562.28,40.56Zm-38.22,48h-13V26.39h13a29.43,29.43,0,0,1,15.29,3.95A28.23,28.23,0,0,1,549.8,41.26a33.3,33.3,0,0,1,3.81,16.16,33.36,33.36,0,0,1-3.81,16.1,28.57,28.57,0,0,1-10.45,11A29.08,29.08,0,0,1,524.06,88.54Z"/><path class="cls-2" d="M57.68,0a57.68,57.68,0,0,0-29,107.52V57.68h0a29,29,0,1,1,42.52,25.6l-7.86-7.86A18.63,18.63,0,1,0,39.05,57.68v54.57a56.87,56.87,0,0,0,10.06,2.47A57.68,57.68,0,1,0,57.68,0Zm0,49.11A8.57,8.57,0,1,1,51.93,64l-.57-.57a8.54,8.54,0,0,1,6.32-14.32Zm0,56.19a47.43,47.43,0,0,1-8.57-.81V75.39L60.24,86.53l8.55,8.55,6.72,6.72A47.22,47.22,0,0,1,57.68,105.3Zm27.07-8.49-6.2-6.2A39,39,0,1,0,18.64,57.68s0,.06,0,.09V84.88a47.61,47.61,0,1,1,66.1,11.93Z"/></g></g></svg>